# xmcd
#
# Track frame offsets: 
#        150
#        14241
#        28695
#        43517
#        56647
#        68423
#        82939
#        96927
#        111294
#        125040
#        137089
#        149302
#        161755
#        174421
#        185837
#        200034
#        213290
#        227183
#        240206
#        255532
#        269454
#        282091
#
# Disc length: 3923 seconds
#
# Revision: 2
# Processed by: cddbd v1.5.2PL0 Copyright (c) Steve Scherf et al.
# Submitted via: ExactAudioCopy v1.0b4
#
DISCID=450f5116
DTITLE=Stan Kenton - The Ultimate Jazz Archive Set 37, Menu 3 Stan Ken
DTITLE=ton
DYEAR=1950
DGENRE=Big Band
TTITLE0=Stan Kenton And His Orchestra - Easy Go
TTITLE1=Stan Kenton And His Orchestra - Love For Sale
TTITLE2=Stan Kenton And His Orchestra - Viva Prado
TTITLE3=Something New (Sunset Tower)
TTITLE4=Theme For Alto
TTITLE5=Riff Rhapsody
TTITLE6=Dynaflow
TTITLE7=What's New
TTITLE8=Jump For Joe
TTITLE9=Stan Kenton And His Orchestra - Night Watch
TTITLE10=Stan Kenton And His Orchestra - Francesca
TTITLE11=Stan Kenton And His Orchestra - Soliloquy
TTITLE12=Stan Kenton And His Orchestra - Lazy Daisy
TTITLE13=Stan Kenton And His Orchestra - Mambo Rhapsody
TTITLE14=Stan Kenton And His Orchestra - Riff Raff
TTITLE15=Stan Kenton And His Orchestra - Star Dust
TTITLE16=Bags And Baggage
TTITLE17=Bill's Blues
TTITLE18=Cool Eyes
TTITLE19=Beehive
TTITLE20=Lover Man
TTITLE21=Stan Kenton And His Orchestra - Fascinating Rhythm
EXTD=YEAR: 2005
EXTT0=
EXTT1=
EXTT2=
EXTT3=
EXTT4=
EXTT5=
EXTT6=
EXTT7=
EXTT8=
EXTT9=
EXTT10=
EXTT11=
EXTT12=
EXTT13=
EXTT14=
EXTT15=
EXTT16=
EXTT17=
EXTT18=
EXTT19=
EXTT20=
EXTT21=
PLAYORDER=
